<svg width="3000" height="1856" xmlns="http://www.w3.org/2000/svg" xmlns:xlink="http://www.w3.org/1999/xlink" overflow="hidden"><defs><clipPath id="clip0"><rect x="201" y="15" width="3000" height="1856"/></clipPath></defs><g clip-path="url(#clip0)" transform="translate(-201 -15)"><path d="M470.5 629C470.5 551.404 589.368 488.5 736 488.5 882.631 488.5 1001.5 551.404 1001.5 629 1001.5 706.596 882.631 769.5 736 769.5 589.368 769.5 470.5 706.596 470.5 629Z" stroke="#000000" stroke-width="4.58333" stroke-miterlimit="8" fill="#FFFFFF" fill-rule="evenodd"/><text font-family="Times New Roman,Times New Roman_MSFontService,sans-serif" font-weight="400" font-size="83" transform="matrix(1 0 0 1 613.734 660)">s=<tspan font-family="KaiTi,KaiTi_MSFontService,sans-serif" font-size="83" x="78.4896" y="0">缺水</tspan></text><path d="M1462.5 1313.5C1462.5 1236.18 1581.14 1173.5 1727.5 1173.5 1873.86 1173.5 1992.5 1236.18 1992.5 1313.5 1992.5 1390.82 1873.86 1453.5 1727.5 1453.5 1581.14 1453.5 1462.5 1390.82 1462.5 1313.5Z" stroke="#000000" stroke-width="4.58333" stroke-miterlimit="8" fill="#FFFFFF" fill-rule="evenodd"/><text font-family="Times New Roman,Times New Roman_MSFontService,sans-serif" font-weight="400" font-size="83" transform="matrix(1 0 0 1 1604.9 1344)">s=<tspan font-family="KaiTi,KaiTi_MSFontService,sans-serif" font-size="83" x="78.4896" y="0">凋亡</tspan></text><path d="M2343.5 629C2343.5 551.404 2462.14 488.5 2608.5 488.5 2754.86 488.5 2873.5 551.404 2873.5 629 2873.5 706.596 2754.86 769.5 2608.5 769.5 2462.14 769.5 2343.5 706.596 2343.5 629Z" stroke="#000000" stroke-width="4.58333" stroke-miterlimit="8" fill="#FFFFFF" fill-rule="evenodd"/><text font-family="Times New Roman,Times New Roman_MSFontService,sans-serif" font-weight="400" font-size="83" transform="matrix(1 0 0 1 2486.07 660)">s=<tspan font-family="KaiTi,KaiTi_MSFontService,sans-serif" font-size="83" x="78.4895" y="0">溢水</tspan></text><path d="M1460.5 629C1460.5 551.404 1579.14 488.5 1725.5 488.5 1871.86 488.5 1990.5 551.404 1990.5 629 1990.5 706.596 1871.86 769.5 1725.5 769.5 1579.14 769.5 1460.5 706.596 1460.5 629Z" stroke="#000000" stroke-width="4.58333" stroke-miterlimit="8" fill="#FFFFFF" fill-rule="evenodd"/><text font-family="Times New Roman,Times New Roman_MSFontService,sans-serif" font-weight="400" font-size="83" transform="matrix(1 0 0 1 1602.89 660)">s=<tspan font-family="KaiTi,KaiTi_MSFontService,sans-serif" font-size="83" x="78.4896" y="0">健康</tspan></text><path d="M546.855 529.097 547.418 509.567 548.985 490.196 551.493 471.138 554.941 452.518 559.204 434.525 564.221 417.28 569.929 400.97 576.267 385.721 583.109 371.662 586.761 365.114 590.534 358.951 594.372 353.162 598.344 347.74 602.381 342.82 606.487 338.271 610.729 334.156 614.98 330.54 619.314 327.417 623.717 324.864 628.2 322.751 632.708 321.27 637.221 320.367 641.742 320.044 646.247 320.302 650.74 321.008 655.225 322.225 659.698 323.886 664.095 325.99 668.423 328.472 672.672 331.389 676.928 334.629 685.075 342.271 692.898 351.229 700.267 361.432 707.186 372.755 713.536 385.014 719.19 398.145 724.214 411.959 728.484 426.401 731.937 441.346 734.451 456.679 735.118 464.981 732.834 465.164 732.17 456.909 732.182 457.003 729.682 441.753 729.696 441.825 726.259 426.95 726.276 427.017 722.026 412.642 722.048 412.709 717.048 398.959 717.073 399.021 711.448 385.958 711.482 386.032 705.17 373.844 705.21 373.915 698.335 362.665 698.384 362.738 691.071 352.613 691.137 352.696 683.387 343.821 683.466 343.903 675.404 336.341 675.493 336.417 671.306 333.229 671.351 333.262 667.164 330.387 667.242 330.436 662.992 327.999 663.068 328.039 658.756 325.976 658.851 326.017 654.476 324.392 654.575 324.423 650.2 323.236 650.322 323.262 645.947 322.574 646.06 322.586 641.685 322.336 641.832 322.335 637.457 322.648 637.6 322.629 633.225 323.504 633.358 323.469 628.983 324.906 629.114 324.854 624.739 326.916 624.825 326.871 620.512 329.371 620.607 329.31 616.357 332.372 616.43 332.315 612.242 335.878 612.298 335.827 608.11 339.89 608.163 339.835 604.1 344.335 604.136 344.294 600.136 349.169 600.174 349.12 596.237 354.495 596.267 354.451 592.455 360.201 592.477 360.166 588.727 366.291 588.751 366.251 585.126 372.751 585.155 372.694 578.343 386.694 578.371 386.632 572.058 401.82 572.081 401.758 566.394 418.008 566.413 417.95 561.413 435.138 561.427 435.082 557.177 453.019 557.189 452.964 553.752 471.526 553.761 471.467 551.261 490.467 551.267 490.41 549.705 509.722 549.708 509.663 549.145 529.163ZM747.406 459.621 735.437 487.942 719.961 461.375Z"/><text font-family="Times New Roman,Times New Roman_MSFontService,sans-serif" font-weight="400" font-size="73" transform="matrix(1 0 0 1 391.085 292)">a=<tspan font-family="KaiTi,KaiTi_MSFontService,sans-serif" font-size="73" x="73.9063" y="0">浇水</tspan><tspan font-size="73" x="0" y="87">p=0.5</tspan><tspan font-size="73" x="0" y="175">r=</tspan>-<tspan font-size="73" x="90.5208" y="175">1</tspan></text><path d="M0.0860022-1.1426 5.98395-0.69867 11.8933 0.650206 17.8413 2.88869 23.6463 5.88688 29.4281 9.7626 35.1274 14.322 40.752 19.6306 46.3054 25.6258 51.7216 32.3646 57.068 39.6609 62.2228 47.5816 67.3082 56.12 72.2666 65.2208 77.0345 74.8195 81.6746 84.9774 86.1253 95.5715 90.387 106.602 94.4597 118.068 98.344 129.971 101.979 142.193 108.553 167.612 114.189 194.163 118.697 221.651 122.078 249.765 124.145 278.383 124.834 307.188 124.145 335.991 122.141 364.605 118.948 392.717 114.565 420.204 109.18 446.754 102.794 472.173 99.2852 484.391 95.5891 496.231 91.6412 507.762 87.5056 518.79 83.2435 529.383 78.7921 539.477 74.2131 549.137 69.4423 558.239 64.5453 566.777 59.579 574.698 54.421 581.995 49.1953 588.731 43.8931 594.728 38.4567 600.038 32.9316 604.664 26.6403 607.575 25.6778 605.496 31.8312 602.648 31.577 602.809 36.952 598.309 36.8869 598.368 42.2619 593.118 42.2041 593.178 47.4541 587.241 47.4071 587.298 52.5946 580.61 52.5643 580.651 57.6893 573.401 57.6542 573.454 62.5917 565.579 62.5685 565.617 67.4435 557.117 67.4226 557.156 72.1726 548.093 72.1521 548.134 76.7146 538.509 76.7016 538.538 81.1391 528.475 81.1245 528.51 85.3745 517.947 85.3646 517.973 89.4896 506.973 89.4784 507.004 93.4159 495.504 93.4062 495.534 97.0937 483.721 97.0862 483.746 100.586 471.559 100.576 471.596 106.951 446.221 106.94 446.272 112.315 419.772 112.306 419.82 116.681 392.382 116.674 392.433 119.861 364.371 119.857 364.42 121.857 335.857 121.854 335.91 122.542 307.16 122.542 307.215 121.854 278.465 121.857 278.52 119.795 249.958 119.8 250.012 116.425 221.949 116.432 221.998 111.932 194.56 111.942 194.613 106.317 168.113 106.328 168.162 99.7657 142.787 99.7767 142.827 96.1517 130.639 96.1607 130.668 92.2857 118.793 92.2953 118.821 88.2327 107.384 88.2437 107.413 83.9937 96.413 84.0061 96.4438 79.5686 85.8813 79.5828 85.9136 74.9578 75.7886 74.9738 75.8223 70.2238 66.2597 70.2438 66.2982 65.3063 57.2357 65.328 57.2738 60.2655 48.7738 60.2896 48.8125 55.1646 40.9375 55.2007 40.9898 49.8882 33.7398 49.9194 33.7803 44.5444 27.0928 44.5969 27.1537 39.0969 21.2162 39.151 21.2708 33.5885 16.0208 33.6592 16.0822 28.0342 11.5822 28.112 11.6393 22.4245 7.82678 22.5367 7.89306 16.8492 4.95556 16.9714 5.0099 11.1589 2.8224 11.3075 2.8671 5.55751 1.5546 5.7265 1.5801-0.0860022 1.1426ZM35.1696 617.888 4.625 614.375 25.7622 592.047Z" transform="matrix(1.83697e-16 1 1 -1.83697e-16 925 725)"/><path d="M0.0860022-1.1426 5.98395-0.69867 11.8933 0.650206 17.8413 2.88869 23.6463 5.88688 29.4281 9.7626 35.1274 14.322 40.752 19.6306 46.3054 25.6258 51.7216 32.3646 57.068 39.6609 62.2228 47.5816 67.3082 56.12 72.2666 65.2208 77.0345 74.8195 81.6746 84.9774 86.1253 95.5715 90.387 106.602 94.4597 118.068 98.344 129.971 101.979 142.193 108.553 167.612 114.189 194.163 118.697 221.651 122.078 249.765 124.145 278.383 124.834 307.188 124.145 335.991 122.141 364.605 118.948 392.717 114.565 420.204 109.18 446.754 102.794 472.173 99.2852 484.391 95.5891 496.231 91.6412 507.762 87.5056 518.79 83.2435 529.383 78.7921 539.477 74.2131 549.137 69.4423 558.239 64.5453 566.777 59.579 574.698 54.421 581.995 49.1953 588.731 43.8931 594.728 38.4567 600.038 32.9316 604.664 26.6403 607.575 25.6778 605.496 31.8312 602.648 31.577 602.809 36.952 598.309 36.8869 598.368 42.2619 593.118 42.2041 593.178 47.4541 587.241 47.4071 587.298 52.5946 580.61 52.5643 580.651 57.6893 573.401 57.6542 573.454 62.5917 565.579 62.5685 565.617 67.4435 557.117 67.4226 557.156 72.1726 548.093 72.1521 548.134 76.7146 538.509 76.7016 538.538 81.1391 528.475 81.1245 528.51 85.3745 517.947 85.3646 517.973 89.4896 506.973 89.4784 507.004 93.4159 495.504 93.4062 495.534 97.0937 483.721 97.0862 483.746 100.586 471.559 100.576 471.596 106.951 446.221 106.94 446.272 112.315 419.772 112.306 419.82 116.681 392.382 116.674 392.433 119.861 364.371 119.857 364.42 121.857 335.857 121.854 335.91 122.542 307.16 122.542 307.215 121.854 278.465 121.857 278.52 119.795 249.958 119.8 250.012 116.425 221.949 116.432 221.998 111.932 194.56 111.942 194.613 106.317 168.113 106.328 168.162 99.7657 142.787 99.7767 142.827 96.1517 130.639 96.1607 130.668 92.2857 118.793 92.2953 118.821 88.2327 107.384 88.2437 107.413 83.9937 96.413 84.0061 96.4438 79.5686 85.8813 79.5828 85.9136 74.9578 75.7886 74.9738 75.8223 70.2238 66.2597 70.2438 66.2982 65.3063 57.2357 65.328 57.2738 60.2655 48.7738 60.2896 48.8125 55.1646 40.9375 55.2007 40.9898 49.8882 33.7398 49.9194 33.7803 44.5444 27.0928 44.5969 27.1537 39.0969 21.2162 39.151 21.2708 33.5885 16.0208 33.6592 16.0822 28.0342 11.5822 28.112 11.6393 22.4245 7.82678 22.5367 7.89306 16.8492 4.95556 16.9714 5.0099 11.1589 2.8224 11.3075 2.8671 5.55751 1.5546 5.7265 1.5801-0.0860022 1.1426ZM35.1696 617.888 4.625 614.375 25.7622 592.047Z" transform="matrix(-1.83697e-16 -1 -1 1.83697e-16 1539.32 531.583)"/><path d="M1535.85 529.099 1536.42 508.259 1537.98 487.641 1540.49 467.274 1543.94 447.408 1548.2 428.167 1553.21 409.801 1558.92 392.368 1565.26 376.121 1572.1 361.127 1575.74 354.143 1579.52 347.543 1583.35 341.376 1587.32 335.644 1591.36 330.35 1595.46 325.485 1599.71 321.116 1603.95 317.313 1608.28 313.939 1612.69 311.192 1617.17 308.949 1621.69 307.338 1626.21 306.368 1630.74 306.044 1635.26 306.303 1639.76 307.138 1644.25 308.419 1648.72 310.21 1653.13 312.445 1657.46 315.182 1661.71 318.292 1665.95 321.903 1670.07 325.825 1674.12 330.193 1681.92 339.888 1689.29 350.904 1696.2 363.163 1702.55 376.421 1708.2 390.674 1713.22 405.672 1717.49 421.297 1720.94 437.487 1723.45 454.125 1724.29 464.973 1722.01 465.151 1721.17 454.344 1721.18 454.426 1718.68 437.863 1718.69 437.931 1715.25 421.806 1715.27 421.869 1711.02 406.307 1711.04 406.369 1706.04 391.431 1706.06 391.49 1700.43 377.302 1700.47 377.375 1694.15 364.187 1694.19 364.255 1687.31 352.068 1687.36 352.142 1680.05 341.204 1680.11 341.286 1672.36 331.661 1672.41 331.722 1668.41 327.409 1668.46 327.459 1664.4 323.584 1664.44 323.628 1660.26 320.065 1660.32 320.117 1656.14 317.055 1656.2 317.098 1651.95 314.411 1652.04 314.464 1647.73 312.277 1647.82 312.319 1643.45 310.569 1643.56 310.607 1639.19 309.357 1639.29 309.382 1634.92 308.569 1635.06 308.586 1630.68 308.336 1630.83 308.335 1626.46 308.648 1626.61 308.625 1622.24 309.563 1622.39 309.522 1618.01 311.084 1618.14 311.03 1613.76 313.217 1613.86 313.165 1609.54 315.852 1609.64 315.784 1605.39 319.096 1605.45 319.046 1601.26 322.796 1601.32 322.741 1597.13 327.053 1597.19 326.994 1593.13 331.807 1593.16 331.762 1589.16 337.012 1589.19 336.97 1585.25 342.657 1585.29 342.61 1581.47 348.735 1581.49 348.698 1577.74 355.261 1577.77 355.223 1574.14 362.161 1574.17 362.105 1567.35 377.043 1567.38 376.984 1561.07 393.171 1561.09 393.111 1555.4 410.486 1555.42 410.432 1550.42 428.744 1550.43 428.69 1546.18 447.878 1546.19 447.826 1542.75 467.638 1542.76 467.582 1540.26 487.895 1540.27 487.842 1538.7 508.404 1538.71 508.348 1538.15 529.161ZM1736.62 459.714 1724.44 487.942 1709.17 461.258Z"/><path d="M0.0315248-1.1454 20.4972-0.582123 40.8651 0.984633 60.9206 3.49158 80.4758 6.93881 99.3418 11.2009 117.459 16.2161 134.579 21.9228 150.639 28.2589 165.386 35.0987 172.245 38.7488 178.719 42.5197 184.824 46.3592 190.431 50.3283 195.66 54.3603 200.466 58.4707 204.708 62.7121 208.508 66.9562 211.818 71.285 214.57 75.7008 216.685 80.187 218.292 84.6859 219.262 89.2133 219.586 93.7418 219.328 98.2549 218.556 102.755 217.273 107.246 215.485 111.717 213.316 116.118 210.639 120.453 207.531 124.702 204.049 128.944 200.189 133.057 195.948 137.108 186.436 144.919 175.546 152.284 163.601 159.2 150.529 165.547 136.588 171.199 121.901 176.22 106.525 180.488 90.6468 183.94 74.3824 186.451 64.1553 187.253 63.9762 184.969 74.1604 184.17 74.0751 184.18 90.2626 181.68 90.1941 181.693 106.007 178.255 105.944 178.271 121.256 174.021 121.192 174.041 135.817 169.041 135.757 169.063 149.632 163.438 149.562 163.469 162.562 157.157 162.488 157.196 174.363 150.321 174.296 150.363 185.108 143.051 185.023 143.114 194.46 135.364 194.396 135.421 198.584 131.421 198.539 131.466 202.352 127.403 202.302 127.46 205.739 123.273 205.7 123.324 208.763 119.136 208.713 119.21 211.338 114.96 211.285 115.056 213.41 110.744 213.374 110.824 215.124 106.449 215.086 106.56 216.336 102.185 216.308 102.306 217.058 97.9314 217.044 98.0596 217.294 93.6846 217.295 93.8316 216.982 89.4566 217.005 89.6151 216.067 85.2401 216.108 85.3854 214.546 81.0104 214.589 81.1136 212.526 76.7386 212.59 76.856 209.903 72.5435 209.965 72.6335 206.715 68.3835 206.771 68.4519 203.021 64.2644 203.065 64.3102 198.877 60.1227 198.943 60.1833 194.193 56.1208 194.238 56.1574 189.05 52.1574 189.088 52.1852 183.525 48.2477 183.578 48.2825 177.515 44.47 177.548 44.4901 171.111 40.7401 171.149 40.7615 164.337 37.1365 164.393 37.1645 149.705 30.352 149.767 30.3784 133.767 24.0659 133.825 24.087 116.763 18.3995 116.819 18.4168 98.7568 13.4168 98.81 13.4302 79.9975 9.18017 80.0511 9.19093 60.5511 5.75343 60.6079 5.76198 40.6079 3.26199 40.6621 3.26746 20.3496 1.70496 20.406 1.7079-0.0315248 1.1454ZM69.4373 199.573 41.1875 187.438 67.8455 172.119Z" transform="matrix(-1.83697e-16 -1 -1 1.83697e-16 1912.42 529.13)"/><path d="M0.0737714-1.14346 5.95398-0.764088 11.8381 0.323202 17.7723 2.17363 23.5653 4.65634 29.3448 7.8319 35.048 11.6341 40.6752 16.0599 46.2284 21.0452 51.6516 26.5314 57.0064 32.6422 62.166 39.1861 67.257 46.2884 72.2206 53.828 76.9925 61.8021 81.637 70.1496 86.0969 78.9439 94.4351 97.5637 101.959 117.565 108.54 138.624 114.18 160.621 118.692 183.368 122.076 206.618 124.144 230.309 124.834 254.188 124.144 278.065 122.139 301.751 118.943 325.061 114.557 347.807 109.168 369.803 102.775 390.862 95.5653 410.798 87.4788 429.416 83.2094 438.206 78.7533 446.616 74.1676 454.594 69.3922 462.072 64.4907 469.172 59.5194 475.717 54.3549 481.826 49.12 487.376 43.8148 492.303 38.3779 496.728 32.847 500.587 26.94 502.762 26.148 500.612 31.9165 498.487 31.6569 498.623 37.0319 494.873 36.9642 494.924 42.3392 490.549 42.2828 490.598 47.5328 485.723 47.4789 485.776 52.6664 480.276 52.6249 480.323 57.7499 474.26 57.7126 474.307 62.6501 467.807 62.6195 467.849 67.4945 460.787 67.4718 460.821 72.2218 453.383 72.1941 453.429 76.7566 445.491 76.7375 445.526 81.175 437.151 81.1568 437.187 85.4068 428.437 85.3865 428.481 93.449 409.918 93.4225 409.985 100.61 390.11 100.591 390.167 106.966 369.167 106.95 369.227 112.325 347.29 112.312 347.346 116.687 324.658 116.677 324.719 119.865 301.469 119.858 301.528 121.858 277.903 121.855 277.967 122.542 254.154 122.542 254.221 121.855 230.408 121.859 230.475 119.796 206.85 119.804 206.915 116.429 183.728 116.439 183.785 111.939 161.098 111.953 161.16 106.328 139.222 106.344 139.279 99.7813 118.279 99.8025 118.341 92.3025 98.4034 92.3292 98.4683 84.0167 79.9058 84.0406 79.9558 79.6031 71.2058 79.6237 71.2446 74.9987 62.9321 75.0168 62.9634 70.2668 55.0259 70.2929 55.0676 65.3554 47.5676 65.3812 47.6051 60.3187 40.5426 60.3502 40.5844 55.2252 34.0844 55.2632 34.1302 49.9507 28.0677 49.9976 28.118 44.6226 22.6805 44.6721 22.7277 39.1721 17.7902 39.2291 17.8381 33.6666 13.4631 33.7394 13.5159 28.1144 9.76589 28.1982 9.81673 22.5107 6.69173 22.6111 6.74069 16.9236 4.30319 17.0339 4.34388 11.2214 2.53138 11.3543 2.56426 5.60429 1.50176 5.73873 1.51846-0.0737714 1.14346ZM34.9407 513.501 4.625 508.375 26.9149 487.198Z" transform="matrix(1.83697e-16 1 1 -1.83697e-16 1914 725)"/><path d="M0.0737714-1.14346 5.95398-0.764088 11.8381 0.323202 17.7723 2.17363 23.5653 4.65634 29.3448 7.8319 35.048 11.6341 40.6752 16.0599 46.2284 21.0452 51.6516 26.5314 57.0064 32.6422 62.166 39.1861 67.257 46.2884 72.2206 53.828 76.9925 61.8021 81.637 70.1496 86.0969 78.9439 94.4351 97.5637 101.959 117.565 108.54 138.624 114.18 160.621 118.692 183.368 122.076 206.618 124.144 230.309 124.834 254.188 124.144 278.065 122.139 301.751 118.943 325.061 114.557 347.807 109.168 369.803 102.775 390.862 95.5653 410.798 87.4788 429.416 83.2094 438.206 78.7533 446.616 74.1676 454.594 69.3922 462.072 64.4907 469.172 59.5194 475.717 54.3549 481.826 49.12 487.376 43.8148 492.303 38.3779 496.728 32.847 500.587 26.94 502.762 26.148 500.612 31.9165 498.487 31.6569 498.623 37.0319 494.873 36.9642 494.924 42.3392 490.549 42.2828 490.598 47.5328 485.723 47.4789 485.776 52.6664 480.276 52.6249 480.323 57.7499 474.26 57.7126 474.307 62.6501 467.807 62.6195 467.849 67.4945 460.787 67.4718 460.821 72.2218 453.383 72.1941 453.429 76.7566 445.491 76.7375 445.526 81.175 437.151 81.1568 437.187 85.4068 428.437 85.3865 428.481 93.449 409.918 93.4225 409.985 100.61 390.11 100.591 390.167 106.966 369.167 106.95 369.227 112.325 347.29 112.312 347.346 116.687 324.658 116.677 324.719 119.865 301.469 119.858 301.528 121.858 277.903 121.855 277.967 122.542 254.154 122.542 254.221 121.855 230.408 121.859 230.475 119.796 206.85 119.804 206.915 116.429 183.728 116.439 183.785 111.939 161.098 111.953 161.16 106.328 139.222 106.344 139.279 99.7813 118.279 99.8025 118.341 92.3025 98.4034 92.3292 98.4683 84.0167 79.9058 84.0406 79.9558 79.6031 71.2058 79.6237 71.2446 74.9987 62.9321 75.0168 62.9634 70.2668 55.0259 70.2929 55.0676 65.3554 47.5676 65.3812 47.6051 60.3187 40.5426 60.3502 40.5844 55.2252 34.0844 55.2632 34.1302 49.9507 28.0677 49.9976 28.118 44.6226 22.6805 44.6721 22.7277 39.1721 17.7902 39.2291 17.8381 33.6666 13.4631 33.7394 13.5159 28.1144 9.76589 28.1982 9.81673 22.5107 6.69173 22.6111 6.74069 16.9236 4.30319 17.0339 4.34388 11.2214 2.53138 11.3543 2.56426 5.60429 1.50176 5.73873 1.51846-0.0737714 1.14346ZM34.9407 513.501 4.625 508.375 26.9149 487.198Z" transform="matrix(-1.83697e-16 -1 -1 1.83697e-16 2422.34 531.583)"/><path d="M0.0387466 1.14518-16.5863 1.70768-16.5166 1.70319-32.9541 3.26569-32.8876 3.25741-49.0751 5.75741-49.0066 5.74468-64.8191 9.18218-64.7561 9.1666-80.0686 13.4166-80.0043 13.3967-94.6293 18.3967-94.5654 18.3727-108.44 24.0602-108.375 24.0307-121.375 30.3432-121.307 30.3077-133.245 37.1202-133.164 37.0699-143.914 44.4449-143.835 44.3855-153.273 52.1355-153.209 52.0786-157.396 56.0786-157.352 56.0341-161.164 60.0966-161.114 60.0395-164.552 64.227-164.513 64.1764-167.575 68.3639-167.525 68.2896-170.15 72.5396-170.097 72.444-172.222 76.7565-172.186 76.6756-173.936 81.0506-173.898 80.9398-175.148 85.3148-175.121 85.1936-175.871 89.5686-175.856 89.4404-176.106 93.8154-176.107 93.6684-175.795 98.0434-175.817 97.8849-174.88 102.26-174.921 102.115-173.358 106.49-173.401 106.386-171.339 110.761-171.403 110.644-168.715 114.956-168.777 114.866-165.527 119.116-165.584 119.048-161.834 123.236-161.877 123.19-157.69 127.377-157.755 127.317-153.005 131.379-153.05 131.343-147.863 135.343-147.9 135.315-142.338 139.252-142.39 139.218-136.328 143.03-136.368 143.006-129.93 146.693-129.962 146.676-123.149 150.301-123.202 150.275-108.514 157.15-108.579 157.122-92.5795 163.434-92.6413 163.412-75.5788 169.037-75.6318 169.021-57.5693 174.021-57.6225 174.007-38.81 178.257-38.8636 178.247-19.3636 181.684-19.4204 181.676 0.579623 184.176 0.514665 184.169 18.3665 185.374 18.2121 187.661 0.327767 186.454-19.7331 183.946-39.2883 180.499-58.1543 176.237-76.2699 171.222-93.39 165.578-109.454 159.24-124.2 152.338-131.054 148.691-137.528 144.983-143.636 141.141-149.244 137.172-154.473 133.14-159.279 129.029-163.52 124.788-167.321 120.544-170.631 116.215-173.383 111.799-175.498 107.313-177.105 102.814-178.075 98.2866-178.398 93.7582-178.14 89.2451-177.369 84.7451-176.086 80.2539-174.297 75.7833-172.129 71.3819-169.451 67.0473-166.343 62.7977-162.862 58.5561-159.002 54.4431-154.76 50.3918-145.251 42.5831-134.422 35.1533-122.41 28.2984-109.343 21.9535-95.403 16.2393-80.7139 11.2174-65.3376 6.94972-49.4593 3.49791-33.2043 0.987478-16.6987-0.581497-0.0387466-1.14518ZM14.2617 172.595 41.1875 187.438 13.1576 200.072Z" transform="matrix(1.83697e-16 1 1 -1.83697e-16 2608 488)"/><path d="M2796.15 727.252 2796.58 738.815 2796.58 738.722 2797.95 750.222 2797.94 750.146 2800.06 761.459 2800.04 761.375 2802.98 772.375 2802.96 772.302 2806.59 782.99 2806.56 782.911 2810.87 793.099 2810.84 793.036 2815.65 802.723 2815.61 802.643 2821.05 811.706 2821 811.639 2826.81 819.951 2826.75 819.87 2833.06 827.37 2832.99 827.294 2839.62 833.856 2839.54 833.784 2846.41 839.409 2846.3 839.324 2853.48 843.824 2853.36 843.755 2860.67 847.13 2860.49 847.066 2867.93 849.129 2867.73 849.092 2875.23 849.779 2875.03 849.779 2882.53 849.154 2882.35 849.184 2889.78 847.309 2889.63 847.36 2896.94 844.36 2896.81 844.425 2903.93 840.363 2903.82 840.432 2910.76 835.37 2910.67 835.442 2917.3 829.505 2917.22 829.583 2923.47 822.771 2923.41 822.844 2929.22 815.344 2929.17 815.408 2934.61 807.283 2934.56 807.368 2939.37 798.618 2939.34 798.684 2943.65 789.496 2943.62 789.579 2947.24 779.954 2947.21 780.033 2950.15 770.096 2950.13 770.186 2952.25 759.999 2952.24 760.082 2953.61 749.707 2953.61 749.81 2954.04 739.372 2954.04 739.475 2953.54 729.038 2953.55 729.134 2952.18 718.822 2952.19 718.911 2950 708.723 2950.03 708.814 2947.03 698.877 2947.06 698.961 2943.31 689.336 2943.34 689.416 2938.9 680.166 2938.94 680.242 2933.94 671.555 2933.99 671.622 2928.49 663.434 2928.55 663.516 2922.48 656.016 2922.55 656.086 2916.11 649.336 2916.18 649.409 2909.37 643.472 2909.46 643.542 2902.34 638.479 2902.57 638.607 2894.32 635.25 2895.18 633.128 2903.56 636.534 2910.84 641.707 2917.73 647.716 2924.24 654.539 2930.36 662.114 2935.91 670.377 2940.95 679.136 2945.43 688.464 2949.21 698.171 2952.24 708.197 2954.44 718.474 2955.83 728.88 2956.33 739.417 2955.89 749.957 2954.51 760.425 2952.36 770.7 2949.4 780.723 2945.74 790.429 2941.4 799.69 2936.54 808.516 2931.06 816.716 2925.19 824.285 2918.87 831.174 2912.16 837.187 2905.12 842.321 2897.88 846.452 2890.42 849.512 2882.81 851.43 2875.12 852.071 2867.42 851.365 2859.79 849.25 2852.33 845.805 2845.02 841.228 2838.04 835.523 2831.34 828.885 2824.97 821.307 2819.1 812.919 2813.62 803.783 2808.77 794.024 2804.43 783.766 2800.78 773.003 2797.82 761.924 2795.68 750.532 2794.29 738.948 2793.86 727.339ZM2895.44 648.666 2872.69 627.983 2902.88 622.194Z"/><path d="M2609.26 769.023 2609.01 781.789 2608.39 794.579 2607.26 807.371 2605.69 820.094 2603.75 832.817 2601.37 845.54 2598.61 858.201 2595.41 870.8 2591.78 883.394 2587.83 895.863 2583.44 908.332 2578.74 920.681 2568.16 945.232 2556.19 969.348 2542.85 993.147 2528.26 1016.44 2512.35 1039.24 2495.32 1061.47 2477.1 1083.13 2457.88 1104.17 2437.6 1124.45 2416.38 1143.98 2394.22 1162.76 2371.24 1180.67 2347.51 1197.7 2322.98 1213.72 2297.81 1228.81 2272.02 1242.83 2245.66 1255.73 2218.8 1267.5 2191.44 1278.08 2163.71 1287.41 2135.66 1295.42 2107.35 1302.06 2078.74 1307.38 2050.06 1311.2 2035.58 1312.58 2021.17 1313.52 2015.19 1313.71 2015.11 1311.42 2021.08 1311.23 2021.04 1311.23 2035.42 1310.29 2035.38 1310.3 2049.82 1308.92 2049.78 1308.93 2078.4 1305.11 2078.35 1305.12 2106.91 1299.81 2106.86 1299.82 2135.11 1293.2 2135.05 1293.21 2163.05 1285.21 2163 1285.23 2190.69 1275.91 2190.64 1275.93 2217.95 1265.37 2217.91 1265.39 2244.72 1253.64 2244.68 1253.66 2270.99 1240.78 2270.94 1240.81 2296.69 1226.81 2296.65 1226.83 2321.78 1211.77 2321.74 1211.79 2346.24 1195.79 2346.2 1195.82 2369.89 1178.82 2369.85 1178.85 2392.79 1160.97 2392.75 1161 2414.88 1142.25 2414.84 1142.28 2436.03 1122.78 2435.99 1122.81 2456.24 1102.56 2456.21 1102.6 2475.4 1081.6 2475.37 1081.64 2493.55 1060.01 2493.52 1060.05 2510.52 1037.87 2510.49 1037.91 2526.36 1015.16 2526.33 1015.2 2540.9 991.954 2540.87 992.002 2554.18 968.252 2554.15 968.303 2566.09 944.241 2566.06 944.297 2576.63 919.797 2576.61 919.842 2581.3 907.53 2581.29 907.557 2585.66 895.12 2585.65 895.154 2589.59 882.717 2589.58 882.745 2593.2 870.182 2593.19 870.218 2596.38 857.656 2596.37 857.694 2599.12 845.069 2599.12 845.102 2601.49 832.414 2601.48 832.452 2603.42 819.765 2603.42 819.798 2604.98 807.11 2604.98 807.149 2606.1 794.399 2606.1 794.444 2606.72 781.694 2606.72 781.728 2606.97 768.978ZM2020.11 1326.18 1992.24 1313.19 2019.36 1298.69Z"/><path d="M0.022463-1.14561 12.7977-0.895119 25.5951-0.0795951 38.3897 1.2375 51.1213 3.05629 63.8492 5.37614 76.5794 8.13541 89.2469 11.4591 101.845 15.2197 114.446 19.42 126.92 24.1214 139.392 29.2604 151.737 34.8377 164.081 40.8531 176.299 47.3069 188.391 54.1356 200.419 61.4027 212.382 69.1063 224.219 77.1234 235.931 85.5785 247.522 94.3501 270.311 113.069 292.537 133.167 314.199 154.578 335.232 177.302 355.514 201.151 375.042 226.188 393.818 252.286 411.718 279.324 428.741 307.362 444.762 336.212 459.844 365.875 473.862 396.29 486.754 427.331 498.519 458.997 509.096 491.226 518.421 523.833 526.432 556.941 533.066 590.299 538.386 623.971 542.203 657.827 543.581 674.797 544.52 691.826 544.855 702.929 542.564 702.998 542.23 691.91 542.231 691.938 541.293 674.938 541.295 674.968 539.92 658.03 539.924 658.066 536.111 624.253 536.118 624.304 530.806 590.679 530.814 590.723 524.189 557.411 524.199 557.457 516.199 524.395 516.211 524.44 506.898 491.878 506.911 491.92 496.349 459.732 496.363 459.774 484.613 428.149 484.629 428.189 471.754 397.189 471.772 397.23 457.772 366.855 457.791 366.894 442.729 337.269 442.748 337.306 426.748 308.494 426.771 308.532 409.771 280.532 409.795 280.57 391.92 253.57 391.945 253.607 373.195 227.544 373.221 227.58 353.721 202.58 353.752 202.617 333.502 178.805 333.534 178.841 312.534 156.153 312.569 156.19 290.944 134.815 290.982 134.85 268.794 114.787 268.835 114.823 246.085 96.1354 246.121 96.1637 234.559 87.4137 234.579 87.429 222.892 78.9915 222.92 79.0112 211.107 71.0112 211.13 71.0259 199.192 63.3384 199.22 63.3557 187.22 56.1057 187.249 56.1227 175.187 49.3102 175.215 49.3257 163.027 42.8882 163.061 42.905 150.748 36.905 150.778 36.9192 138.466 31.3567 138.501 31.3719 126.063 26.2469 126.096 26.2597 113.658 21.5722 113.7 21.587 101.138 17.3995 101.172 17.4105 88.6098 13.6605 88.6467 13.6708 76.0217 10.3583 76.0698 10.3698 63.3823 7.61983 63.4195 7.62726 50.732 5.31476 50.7755 5.32182 38.088 3.50932 38.1327 3.51481 25.3827 2.20231 25.4271 2.20601 12.6771 1.39351 12.7275 1.39561-0.022463 1.14561ZM557.361 698.094 544.188 725.875 529.867 698.668Z" transform="matrix(1.83697e-16 1 1 -1.83697e-16 735 769)"/><path d="M1917.99 1410.05 1917.73 1415.92 1916.91 1421.77 1915.57 1427.68 1913.73 1433.45 1911.39 1439.22 1908.6 1444.92 1905.32 1450.54 1901.65 1456.1 1897.55 1461.53 1893.07 1466.89 1888.22 1472.05 1882.99 1477.16 1871.55 1486.9 1858.91 1496.02 1845.09 1504.38 1830.39 1511.91 1814.82 1518.51 1798.55 1524.16 1781.79 1528.68 1764.52 1532.07 1747.06 1534.14 1729.4 1534.83 1711.75 1534.14 1694.23 1532.13 1677.03 1528.93 1660.27 1524.54 1644.01 1519.14 1628.43 1512.73 1613.67 1505.51 1599.91 1497.4 1587.22 1488.67 1575.77 1479.3 1570.6 1474.38 1565.69 1469.4 1561.2 1464.23 1557.17 1458.99 1553.5 1453.69 1550.22 1448.25 1547.39 1442.72 1545.97 1437.25 1548.18 1436.68 1549.58 1442.02 1549.49 1441.79 1552.24 1447.17 1552.2 1447.09 1555.45 1452.47 1555.41 1452.41 1559.03 1457.66 1559 1457.61 1563 1462.8 1562.96 1462.75 1567.4 1467.88 1567.34 1467.82 1572.22 1472.76 1572.19 1472.73 1577.32 1477.61 1577.26 1477.55 1588.63 1486.86 1588.55 1486.81 1601.18 1495.49 1601.11 1495.45 1614.8 1503.51 1614.72 1503.47 1629.41 1510.66 1629.34 1510.63 1644.84 1517 1644.77 1516.98 1660.95 1522.35 1660.88 1522.33 1677.57 1526.7 1677.49 1526.69 1694.61 1529.87 1694.53 1529.86 1711.97 1531.86 1711.89 1531.86 1729.45 1532.54 1729.36 1532.54 1746.92 1531.86 1746.83 1531.86 1764.21 1529.8 1764.12 1529.81 1781.31 1526.44 1781.23 1526.46 1797.92 1521.96 1797.84 1521.98 1814.03 1516.36 1813.96 1516.38 1829.46 1509.82 1829.38 1509.86 1844.01 1502.36 1843.94 1502.39 1857.69 1494.08 1857.61 1494.13 1870.17 1485.07 1870.1 1485.13 1881.47 1475.44 1881.42 1475.49 1886.6 1470.43 1886.57 1470.47 1891.38 1465.34 1891.34 1465.39 1895.77 1460.08 1895.74 1460.12 1899.8 1454.75 1899.76 1454.81 1903.39 1449.31 1903.35 1449.36 1906.6 1443.8 1906.56 1443.87 1909.31 1438.25 1909.28 1438.32 1911.59 1432.63 1911.56 1432.71 1913.38 1427.03 1913.35 1427.12 1914.66 1421.31 1914.64 1421.4 1915.46 1415.65 1915.45 1415.76 1915.7 1409.95ZM1534.69 1444.5 1541.97 1414.63 1561.5 1438.37Z"/><path d="M0.0433248 1.14501-11.5192 1.58251-11.4265 1.57523-22.9265 2.95023-22.851 2.93864-34.1635 5.06364-34.0794 5.04454-45.0794 7.98204-45.007 7.96011-55.6945 11.5851-55.6158 11.5552-65.8033 15.8677-65.7402 15.8387-75.4277 20.6512-75.348 20.6075-84.4105 26.045-84.3434 26.0015-92.6559 31.814-92.5747 31.7516-100.075 38.0641-99.9985 37.9939-106.561 44.6189-106.488 44.5381-112.113 51.4131-112.029 51.2955-116.529 58.483-116.46 58.3552-119.835 65.6677-119.771 65.4937-121.833 72.9312-121.796 72.7296-122.484 80.2296-122.483 80.0298-121.858 87.5298-121.889 87.3449-120.014 94.7824-120.065 94.6276-117.065 101.94-117.13 101.807-113.067 108.932-113.137 108.825-108.074 115.762-108.147 115.673-102.209 122.298-102.288 122.218-95.4754 128.468-95.5481 128.407-88.0481 134.219-88.1127 134.173-79.9877 139.61-80.0728 139.559-71.3228 144.371-71.3881 144.338-62.2006 148.65-62.2836 148.615-52.6586 152.24-52.7377 152.214-42.8002 155.151-42.891 155.128-32.7035 157.253-32.787 157.239-22.412 158.614-22.5145 158.605-12.077 159.043-12.1798 159.043-1.74233 158.543-1.83894 158.552 8.47356 157.177 8.38445 157.192 18.5719 155.005 18.4813 155.028 28.4188 152.028 28.334 152.057 37.959 148.307 37.8794 148.342 47.1294 143.904 47.0534 143.944 55.7409 138.944 55.6736 138.986 63.8611 133.486 63.7797 133.546 71.2797 127.484 71.2092 127.546 77.9592 121.108 77.8862 121.185 83.8237 114.372 83.7534 114.461 88.8159 107.336 88.6886 107.568 92.0451 99.3161 94.1679 100.18 90.7612 108.555 85.5886 115.835 79.5791 122.73 72.7568 129.237 65.181 135.36 56.9185 140.911 48.1593 145.952 38.8314 150.427 29.1241 154.209 19.0988 157.235 8.8213 159.442-1.58418 160.83-12.1216 161.334-22.662 160.893-33.13 159.505-43.4049 157.362-53.4273 154.4-63.1336 150.744-72.3951 146.397-81.2209 141.542-89.4204 136.055-96.9895 130.189-103.878 123.869-109.892 117.159-115.026 110.123-119.157 102.878-122.216 95.4218-124.134 87.8139-124.775 80.1202-124.069 72.4179-121.954 64.7917-118.51 57.3287-113.933 50.018-108.227 43.0448-101.59 36.3443-94.0111 29.9653-85.6238 24.1005-76.488 18.6191-66.7287 13.7709-56.4704 9.42841-45.7072 5.77773-34.6289 2.81933-23.2365 0.679307-11.6523-0.705755-0.0433248-1.14501ZM78.6291 100.436 99.3125 77.6875 105.102 107.884Z" transform="matrix(-6.12323e-17 -1 -1 6.12323e-17 547.632 727.295)"/><text font-family="Times New Roman,Times New Roman_MSFontService,sans-serif" font-weight="400" font-size="73" transform="matrix(1 0 0 1 245.72 957)">a=<tspan font-family="KaiTi,KaiTi_MSFontService,sans-serif" font-size="73" x="73.9063" y="0">不</tspan><tspan font-family="KaiTi,KaiTi_MSFontService,sans-serif" font-size="73" x="147.24" y="0">浇水</tspan><tspan font-size="73" x="0" y="87">p=0.4</tspan><tspan font-size="73" x="0" y="175">r=</tspan>-<tspan font-size="73" x="90.5209" y="175">1</tspan><tspan font-size="73" x="511.791" y="304">a=</tspan><tspan font-family="KaiTi,KaiTi_MSFontService,sans-serif" font-size="73" x="585.698" y="304">不</tspan><tspan font-family="KaiTi,KaiTi_MSFontService,sans-serif" font-size="73" x="659.031" y="304">浇水</tspan><tspan font-size="73" x="511.791" y="391">p=0.6</tspan><tspan font-size="73" x="511.791" y="479">r=</tspan>-<tspan font-size="73" x="602.312" y="479">100</tspan><tspan font-size="73" x="1331.36" y="678">a=</tspan><tspan font-family="KaiTi,KaiTi_MSFontService,sans-serif" font-size="73" x="1405.26" y="678">浇水</tspan><tspan font-family="KaiTi,KaiTi_MSFontService,sans-serif" font-size="73" x="1551.93" y="678">\</tspan><tspan font-family="KaiTi,KaiTi_MSFontService,sans-serif" font-size="73" x="1588.59" y="678">不浇水</tspan><tspan font-size="73" x="1331.36" y="765">p=1</tspan><tspan font-size="73" x="1331.36" y="853">r=</tspan><tspan font-size="73" x="1397.24" y="853">-</tspan>100<tspan font-size="73" x="737.259" y="-744">a=</tspan><tspan font-family="KaiTi,KaiTi_MSFontService,sans-serif" font-size="73" x="811.165" y="-744">不</tspan><tspan font-family="KaiTi,KaiTi_MSFontService,sans-serif" font-size="73" x="884.499" y="-744">浇水</tspan><tspan font-size="73" x="737.259" y="-657">p=0.6</tspan><tspan font-size="73" x="737.259" y="-569">r=</tspan>-<tspan font-size="73" x="827.78" y="-569">1</tspan><tspan font-size="73" x="1002.22" y="55">a=</tspan><tspan font-family="KaiTi,KaiTi_MSFontService,sans-serif" font-size="73" x="1076.12" y="55">浇水</tspan><tspan font-size="73" x="1002.22" y="142">p=0.5</tspan><tspan font-size="73" x="1002.22" y="230">r=1</tspan><tspan font-size="73" x="2193.42" y="295">a=</tspan><tspan font-family="KaiTi,KaiTi_MSFontService,sans-serif" font-size="73" x="2267.33" y="295">浇水</tspan><tspan font-size="73" x="2193.42" y="382">p=0.4</tspan><tspan font-size="73" x="2193.42" y="470">r=</tspan><tspan font-size="73" x="2259.31" y="470">-</tspan>100<tspan font-size="73" x="2582.52" y="-760">a=</tspan><tspan font-family="KaiTi,KaiTi_MSFontService,sans-serif" font-size="73" x="2656.43" y="-760">不浇水</tspan><tspan font-size="73" x="2582.52" y="-673">p=0.4</tspan><tspan font-size="73" x="2582.52" y="-585">r=</tspan><tspan font-size="73" x="2648.4" y="-585">-</tspan>1<tspan font-size="73" x="2690.3" y="-45">a=</tspan><tspan font-family="KaiTi,KaiTi_MSFontService,sans-serif" font-size="73" x="2764.2" y="-45">浇水</tspan><tspan font-size="73" x="2690.3" y="42">p=0.6</tspan><tspan font-size="73" x="2690.3" y="130">r=</tspan>-<tspan font-size="73" x="2780.82" y="130">1</tspan><tspan font-size="73" x="1920.08" y="-733">a=</tspan><tspan font-family="KaiTi,KaiTi_MSFontService,sans-serif" font-size="73" x="1993.99" y="-733">不浇水</tspan><tspan font-size="73" x="1920.08" y="-646">p=0.6</tspan><tspan font-size="73" x="1920.08" y="-558">r=1</tspan><tspan font-size="73" x="1718.55" y="10">a=</tspan><tspan font-family="KaiTi,KaiTi_MSFontService,sans-serif" font-size="73" x="1792.46" y="10">浇水</tspan><tspan font-size="73" x="1718.55" y="97">p=0.4</tspan><tspan font-size="73" x="1718.55" y="185">r=1</tspan><tspan font-size="73" x="1533.82" y="-843">a=</tspan><tspan font-family="KaiTi,KaiTi_MSFontService,sans-serif" font-size="73" x="1607.73" y="-843">浇水</tspan><tspan font-size="73" x="1533.82" y="-756">p=0.6</tspan><tspan font-size="73" x="1533.82" y="-668">r=1</tspan><tspan font-size="73" x="1198.74" y="-835">a=</tspan><tspan font-family="KaiTi,KaiTi_MSFontService,sans-serif" font-size="73" x="1272.65" y="-835">不</tspan><tspan font-family="KaiTi,KaiTi_MSFontService,sans-serif" font-size="73" x="1345.98" y="-835">浇水</tspan><tspan font-size="73" x="1198.74" y="-748">p=0.4</tspan><tspan font-size="73" x="1198.74" y="-660">r=1</tspan></text></g></svg>