<svg width="1626" height="1313" xmlns="http://www.w3.org/2000/svg" xmlns:xlink="http://www.w3.org/1999/xlink" overflow="hidden"><defs><clipPath id="clip0"><rect x="831" y="552" width="1626" height="1313"/></clipPath></defs><g clip-path="url(#clip0)" transform="translate(-831 -552)"><path d="M836 555 836 1639.79" stroke="#000000" stroke-width="2.29167" stroke-miterlimit="8" fill="none" fill-rule="evenodd"/><path d="M836 1639 1064.19 1863.57" stroke="#000000" stroke-width="2.29167" stroke-miterlimit="8" fill="none" fill-rule="evenodd"/><path d="M1064 1864 2173.36 1864" stroke="#000000" stroke-width="2.29167" stroke-miterlimit="8" fill="none" fill-rule="evenodd"/><path d="M0 0 0.000360892 772.34" stroke="#000000" stroke-width="2.29167" stroke-miterlimit="8" fill="none" fill-rule="evenodd" transform="matrix(1 0 0 -1 2173 1857.34)"/><path d="M0 0 1109.36 0.000360892" stroke="#000000" stroke-width="2.29167" stroke-miterlimit="8" fill="none" fill-rule="evenodd" transform="matrix(-1 0 0 1 2173.36 1085)"/><path d="M0 0 0.000360892 779.361" stroke="#000000" stroke-width="2.29167" stroke-miterlimit="8" fill="none" fill-rule="evenodd" transform="matrix(1 0 0 -1 1064 1864.36)"/><path d="M836 860 1064.19 1084.57" stroke="#000000" stroke-width="2.29167" stroke-miterlimit="8" fill="none" fill-rule="evenodd"/><path d="M834 556C913.668 635.259 993.336 714.519 1031.84 803.519 1070.34 892.519 1035.08 1047.41 1065 1090" stroke="#000000" stroke-width="2.29167" stroke-miterlimit="8" fill="none" fill-rule="evenodd"/><path d="M1943 553C2023.01 632.26 2103.03 711.519 2141.69 800.519 2180.36 889.519 2144.95 1044.41 2175 1087" stroke="#000000" stroke-width="2.29167" stroke-miterlimit="8" fill="none" fill-rule="evenodd"/><path d="M0 0 1110.99 1.92572" stroke="#000000" stroke-width="2.29167" stroke-miterlimit="8" fill="none" fill-rule="evenodd" transform="matrix(-1 0 0 1 1942.99 553)"/><path d="M1359.5 688.5 1689.1 688.5 1771.5 851.5 1435.03 851.5 1359.5 688.5Z" stroke="#000000" stroke-width="4.58333" stroke-miterlimit="8" fill="#FFFFFF" fill-rule="evenodd"/><text font-family="DengXian,DengXian_MSFontService,sans-serif" font-weight="400" font-size="83" transform="matrix(1 0 0 1 1499.9 797)">$$$</text><path d="M1224.5 1265.5 1224.5 1419.04" stroke="#000000" stroke-width="6.875" stroke-miterlimit="8" fill="none" fill-rule="evenodd"/><path d="M1224 1329 1424.45 1418.09" stroke="#000000" stroke-width="2.29167" stroke-miterlimit="8" fill="none" fill-rule="evenodd"/><path d="M1222 1379 1423.01 1466.22" stroke="#000000" stroke-width="2.29167" stroke-miterlimit="8" fill="none" fill-rule="evenodd"/><path d="M1423 1467C1437.41 1463.61 1451.82 1460.22 1452 1452.05 1452.18 1443.88 1425.69 1421.74 1424.07 1418" stroke="#000000" stroke-width="2.29167" stroke-miterlimit="8" fill="none" fill-rule="evenodd"/><path d="M1408.5 1271.5 1408.5 1425.04" stroke="#000000" stroke-width="6.875" stroke-miterlimit="8" fill="none" fill-rule="evenodd"/><path d="M1408 1335 1608.45 1424.09" stroke="#000000" stroke-width="2.29167" stroke-miterlimit="8" fill="none" fill-rule="evenodd"/><path d="M1406 1385 1607.01 1472.22" stroke="#000000" stroke-width="2.29167" stroke-miterlimit="8" fill="none" fill-rule="evenodd"/><path d="M1607 1472C1621.41 1468.68 1635.82 1465.36 1636 1457.36 1636.18 1449.36 1609.69 1427.66 1608.07 1424" stroke="#000000" stroke-width="2.29167" stroke-miterlimit="8" fill="none" fill-rule="evenodd"/><path d="M1582.5 1277.5 1582.5 1431.04" stroke="#000000" stroke-width="6.875" stroke-miterlimit="8" fill="none" fill-rule="evenodd"/><path d="M1582 1341 1782.45 1430.09" stroke="#000000" stroke-width="2.29167" stroke-miterlimit="8" fill="none" fill-rule="evenodd"/><path d="M1580 1392 1781.01 1479.22" stroke="#000000" stroke-width="2.29167" stroke-miterlimit="8" fill="none" fill-rule="evenodd"/><path d="M1781 1479C1795.41 1475.61 1809.82 1472.22 1810 1464.05 1810.18 1455.88 1783.69 1433.74 1782.07 1430" stroke="#000000" stroke-width="2.29167" stroke-miterlimit="8" fill="none" fill-rule="evenodd"/><path d="M1740.5 1274.5 1740.5 1428.04" stroke="#000000" stroke-width="6.875" stroke-miterlimit="8" fill="none" fill-rule="evenodd"/><path d="M1740 1338 1940.45 1427.09" stroke="#000000" stroke-width="2.29167" stroke-miterlimit="8" fill="none" fill-rule="evenodd"/><path d="M1738 1388 1939.01 1475.22" stroke="#000000" stroke-width="2.29167" stroke-miterlimit="8" fill="none" fill-rule="evenodd"/><path d="M1939 1476C1953.41 1472.61 1967.82 1469.22 1968 1461.05 1968.18 1452.88 1941.69 1430.74 1940.07 1427" stroke="#000000" stroke-width="2.29167" stroke-miterlimit="8" fill="none" fill-rule="evenodd"/><path d="M1924.5 1275.5 1924.5 1429.04" stroke="#000000" stroke-width="6.875" stroke-miterlimit="8" fill="none" fill-rule="evenodd"/><path d="M1924 1339 2124.45 1428.09" stroke="#000000" stroke-width="2.29167" stroke-miterlimit="8" fill="none" fill-rule="evenodd"/><path d="M1922 1390 2123.01 1477.22" stroke="#000000" stroke-width="2.29167" stroke-miterlimit="8" fill="none" fill-rule="evenodd"/><path d="M2123 1477C2137.41 1473.68 2151.82 1470.36 2152 1462.36 2152.18 1454.36 2125.69 1432.66 2124.07 1429" stroke="#000000" stroke-width="2.29167" stroke-miterlimit="8" fill="none" fill-rule="evenodd"/><text font-family="DengXian,DengXian_MSFontService,sans-serif" font-weight="400" font-size="83" transform="matrix(1 0 0 1 1200.43 1255)">1<tspan font-size="83" x="185.018" y="0">2</tspan><tspan font-size="83" x="359.884" y="-3">3</tspan><tspan font-size="83" x="525.004" y="5">4</tspan><tspan font-size="83" x="704.272" y="7">5</tspan><tspan font-family="KaiTi,KaiTi_MSFontService,sans-serif" font-size="73" x="1056.24" y="-3">摇臂</tspan></text><path d="M2341.33 1282.03 2341.08 1290.51 2340.26 1299.02 2338.94 1307.53 2337.05 1315.97 2334.72 1324.27 2331.95 1332.58 2328.74 1340.76 2325.03 1348.75 2320.94 1356.67 2316.48 1364.47 2311.57 1372.02 2306.35 1379.44 2294.86 1393.63 2282.17 1406.95 2268.35 1419.14 2253.52 1430.14 2237.88 1439.81 2229.83 1444.09 2221.59 1448.05 2213.17 1451.57 2204.68 1454.65 2196.06 1457.35 2187.36 1459.56 2175 1461.54 2174.64 1459.27 2186.94 1457.31 2186.84 1457.33 2195.47 1455.14 2195.41 1455.16 2203.97 1452.47 2203.92 1452.49 2212.36 1449.42 2212.31 1449.44 2220.68 1445.94 2220.63 1445.97 2228.82 1442.03 2228.77 1442.05 2236.77 1437.8 2236.71 1437.84 2252.27 1428.21 2252.19 1428.27 2266.94 1417.33 2266.87 1417.39 2280.62 1405.27 2280.54 1405.33 2293.17 1392.08 2293.11 1392.15 2304.55 1378.03 2304.5 1378.09 2309.69 1370.72 2309.66 1370.75 2314.54 1363.25 2314.5 1363.31 2318.94 1355.56 2318.92 1355.6 2322.98 1347.72 2322.96 1347.77 2326.65 1339.83 2326.62 1339.89 2329.81 1331.77 2329.79 1331.83 2332.54 1323.58 2332.52 1323.63 2334.83 1315.38 2334.82 1315.44 2336.69 1307.06 2336.68 1307.14 2337.99 1298.7 2337.98 1298.77 2338.8 1290.33 2338.79 1290.4 2339.04 1281.97ZM2180.64 1473.68 2152 1462.5 2178.13 1446.29Z"/><path d="M1522.5 1593.5 1676.1 1593.5 1714.5 1674.5 1557.7 1674.5 1522.5 1593.5Z" stroke="#000000" stroke-width="4.58333" stroke-miterlimit="8" fill="#FFFFFF" fill-rule="evenodd"/><path d="M1540 1639 1696.37 1639" stroke="#000000" stroke-width="2.29167" stroke-miterlimit="8" fill="none" fill-rule="evenodd"/></g></svg>