<svg width="3400" height="2052" xmlns="http://www.w3.org/2000/svg" xmlns:xlink="http://www.w3.org/1999/xlink" overflow="hidden"><defs><clipPath id="clip0"><rect x="164" y="318" width="3400" height="2052"/></clipPath></defs><g clip-path="url(#clip0)" transform="translate(-164 -318)"><path d="M586 484 586 1990.06" stroke="#000000" stroke-width="2.29167" stroke-miterlimit="8" fill="none" fill-rule="evenodd"/><path d="M0 0 2842.63 0.000360892" stroke="#000000" stroke-width="2.29167" stroke-miterlimit="8" fill="none" fill-rule="evenodd" transform="matrix(1 0 0 -1 586 1991)"/><path d="M586 1991 586 2029.97" stroke="#000000" stroke-width="2.29167" stroke-miterlimit="8" fill="none" fill-rule="evenodd"/><path d="M1067 1991 1067 2029.97" stroke="#000000" stroke-width="2.29167" stroke-miterlimit="8" fill="none" fill-rule="evenodd"/><path d="M1549 1991 1549 2029.97" stroke="#000000" stroke-width="2.29167" stroke-miterlimit="8" fill="none" fill-rule="evenodd"/><path d="M2030 1991 2030 2029.97" stroke="#000000" stroke-width="2.29167" stroke-miterlimit="8" fill="none" fill-rule="evenodd"/><path d="M2511 1991 2511 2029.97" stroke="#000000" stroke-width="2.29167" stroke-miterlimit="8" fill="none" fill-rule="evenodd"/><path d="M2992 1991 2992 2029.97" stroke="#000000" stroke-width="2.29167" stroke-miterlimit="8" fill="none" fill-rule="evenodd"/><path d="M585.968 1991 547 1991" stroke="#000000" stroke-width="2.29167" stroke-miterlimit="8" fill="none" fill-rule="evenodd"/><path d="M585.968 1489 547 1489" stroke="#000000" stroke-width="2.29167" stroke-miterlimit="8" fill="none" fill-rule="evenodd"/><path d="M585.968 986 547 986" stroke="#000000" stroke-width="2.29167" stroke-miterlimit="8" fill="none" fill-rule="evenodd"/><path d="M585.968 484 547 484.001" stroke="#000000" stroke-width="2.29167" stroke-miterlimit="8" fill="none" fill-rule="evenodd"/><text font-family="Times New Roman,Times New Roman_MSFontService,sans-serif" font-weight="400" font-size="73" transform="matrix(1 0 0 1 1011.56 2143)">500<tspan font-size="73" x="481.145" y="0">1000</tspan><tspan font-size="73" x="962.289" y="6">1500</tspan><tspan font-size="73" x="1443.43" y="6">2000</tspan><tspan font-size="73" x="1924.58" y="6">2500</tspan></text><path d="M3429 1991 3429 2029.97" stroke="#000000" stroke-width="2.29167" stroke-miterlimit="8" fill="none" fill-rule="evenodd"/><text font-family="Times New Roman,Times New Roman_MSFontService,sans-serif" font-weight="400" font-size="73" transform="matrix(1 0 0 1 3373.05 2149)">3000<tspan font-size="73" x="-2805.6" y="3">0</tspan><tspan font-size="73" x="-3026.62" y="-132">0.25</tspan><tspan font-size="73" x="-3039.68" y="-634">0.30</tspan><tspan font-size="73" x="-3046.2" y="-1136">0.35</tspan><tspan font-size="73" x="-3036.7" y="-1638">0.40</tspan></text><path d="M587 1989C596.292 1938.39 602.497 1839.49 608.101 1753.88 613.704 1668.27 611.143 1508.01 744.383 1495.08 877.624 1482.15 2910.88 1425.01 3429 1420" stroke="#000000" stroke-width="2.29167" stroke-miterlimit="8" fill="none" fill-rule="evenodd"/><text font-family="KaiTi,KaiTi_MSFontService,sans-serif" font-weight="400" font-size="83" transform="matrix(1 0 0 1 2023.59 1590)">仅探索</text><path d="M586 2002C595.253 1925.06 580.892 1781.71 607.012 1644.57 633.131 1507.43 610.041 1183.16 742.719 1179.15L3416 1137" stroke="#000000" stroke-width="2.29167" stroke-miterlimit="8" fill="none" fill-rule="evenodd"/><path d="M1944.87 844.831C1946.74 844.831 1948.44 844.953 1949.98 845.196 1951.52 845.439 1953.13 845.912 1954.8 846.615L1953.38 850.221C1950.71 849.384 1947.97 848.965 1945.16 848.965 1941.43 848.965 1938.18 850.093 1935.41 852.349 1932.64 854.605 1930.63 857.814 1929.39 861.974L1949.78 861.974 1948.88 866.189 1928.34 866.189C1928.2 866.676 1928.06 867.459 1927.91 868.54 1927.76 869.621 1927.69 870.661 1927.69 871.66 1927.69 874.578 1928.42 876.821 1929.88 878.388 1931.34 879.955 1933.34 880.739 1935.88 880.739 1938.09 880.739 1940 880.583 1941.61 880.273 1943.22 879.962 1944.93 879.469 1946.74 878.793L1947.67 882.035C1945.24 883.008 1942.99 883.731 1940.92 884.204 1938.85 884.677 1936.5 884.913 1933.85 884.913 1929.71 884.913 1926.55 883.751 1924.35 881.428 1922.14 879.104 1921.04 875.794 1921.04 871.498 1921.04 869.391 1921.32 867.054 1921.87 864.487 1922.43 861.92 1923.34 859.462 1924.61 857.111 1925.88 854.761 1927.5 852.653 1929.47 850.789 1931.44 848.925 1933.73 847.466 1936.34 846.412 1938.95 845.358 1941.79 844.831 1944.87 844.831Z" fill-rule="evenodd"/><text fill="#000000" fill-opacity="0" font-family="Arial,Arial_MSFontService,sans-serif" font-size="40.0815" x="1921.04" y="879.903">𝜖</text><text font-family="Times New Roman,Times New Roman_MSFontService,sans-serif" font-weight="400" font-size="83" transform="matrix(1 0 0 1 1957.78 884)">-<tspan font-family="KaiTi,KaiTi_MSFontService,sans-serif" font-size="83" x="27.5" y="0">贪心</tspan><tspan font-size="83" x="192.5" y="0">( </tspan></text><path d="M2226.5 844.831C2228.36 844.831 2230.06 844.953 2231.6 845.196 2233.14 845.439 2234.75 845.912 2236.42 846.615L2235.01 850.221C2232.33 849.384 2229.59 848.965 2226.78 848.965 2223.05 848.965 2219.8 850.093 2217.03 852.349 2214.26 854.605 2212.26 857.814 2211.01 861.974L2231.4 861.974 2230.51 866.189 2209.96 866.189C2209.82 866.676 2209.68 867.459 2209.53 868.54 2209.39 869.621 2209.31 870.661 2209.31 871.66 2209.31 874.578 2210.04 876.821 2211.5 878.388 2212.96 879.955 2214.96 880.739 2217.5 880.739 2219.71 880.739 2221.62 880.583 2223.23 880.273 2224.84 879.962 2226.55 879.469 2228.36 878.793L2229.29 882.035C2226.86 883.008 2224.61 883.731 2222.54 884.204 2220.48 884.677 2218.12 884.913 2215.47 884.913 2211.34 884.913 2208.17 883.751 2205.97 881.428 2203.77 879.104 2202.67 875.794 2202.67 871.498 2202.67 869.391 2202.94 867.054 2203.5 864.487 2204.05 861.92 2204.96 859.462 2206.23 857.111 2207.5 854.761 2209.12 852.653 2211.09 850.789 2213.07 848.925 2215.36 847.466 2217.96 846.412 2220.57 845.358 2223.42 844.831 2226.5 844.831Z" fill-rule="evenodd"/><text fill="#000000" fill-opacity="0" font-family="Arial,Arial_MSFontService,sans-serif" font-size="40.0815" x="2202.67" y="879.903">𝜖</text><text font-family="Times New Roman,Times New Roman_MSFontService,sans-serif" font-weight="400" font-size="83" transform="matrix(1 0 0 1 2239.41 884)">=0.01)<tspan font-family="KaiTi,KaiTi_MSFontService,sans-serif" font-size="83" x="803.639" y="168">仅</tspan><tspan font-family="KaiTi,KaiTi_MSFontService,sans-serif" font-size="83" x="886.139" y="168">利用</tspan></text><path d="M586 2002C595.387 1876.93 577.954 1620.92 607.316 1421.02 636.678 1221.12 600.449 1015.3 762.172 802.6 923.894 589.899 2553 618.84 3457 596" stroke="#000000" stroke-width="2.29167" stroke-miterlimit="8" fill="none" fill-rule="evenodd"/><path d="M584 2002C593.526 1890.36 594.784 1678.37 605.63 1483.4 616.477 1288.44 647.26 836.886 1123.49 667.152 1599.72 497.418 2545.65 464.755 3463 465.001" stroke="#ED7D31" stroke-width="2.29167" stroke-miterlimit="8" fill="none" fill-rule="evenodd"/><path d="M576 2002C585.441 1907.37 611.472 1253.13 676.519 1187.72 741.565 1122.31 854.737 1006.91 1316.98 908.293 1779.23 809.673 2554.57 667.978 3450 596" stroke="#843C0C" stroke-width="2.29167" stroke-miterlimit="8" fill="none" fill-rule="evenodd"/><text font-family="Times New Roman,Times New Roman_MSFontService,sans-serif" font-weight="400" font-size="83" transform="matrix(1 0 0 1 1922.38 1364)">Softmax<tspan font-size="83" x="279.583" y="0">(</tspan></text><path d="M2245.68 1325.52 2266.91 1325.52 2265.7 1330.87 2253.01 1330.87 2248.43 1351.17C2247.84 1353.82 2247.54 1355.82 2247.54 1357.17 2247.54 1358.25 2247.72 1359.03 2248.07 1359.52 2248.42 1360.01 2248.97 1360.25 2249.73 1360.25 2250.65 1360.25 2251.65 1359.87 2252.73 1359.12 2253.81 1358.36 2255.04 1357.16 2256.42 1355.51L2258.77 1357.7C2256.44 1360.29 2254.37 1362.14 2252.55 1363.25 2250.72 1364.36 2248.85 1364.91 2246.93 1364.91 2245.01 1364.91 2243.5 1364.28 2242.39 1363.01 2241.29 1361.74 2240.73 1360.09 2240.73 1358.06 2240.73 1356.25 2241.11 1353.63 2241.87 1350.2L2242.43 1347.65C2242.87 1345.67 2243.51 1343.08 2244.36 1339.86 2245.21 1336.65 2246.07 1333.77 2246.93 1331.23L2246.73 1330.87 2243.24 1330.87C2241.46 1330.87 2240.09 1331.01 2239.13 1331.29 2238.17 1331.58 2237.23 1332.06 2236.31 1332.75 2235.4 1333.44 2234.44 1334.43 2233.44 1335.73L2230.88 1333.58C2232.34 1331.77 2233.62 1330.35 2234.71 1329.33 2235.81 1328.3 2236.85 1327.52 2237.85 1327 2238.85 1326.47 2239.93 1326.09 2241.1 1325.86 2242.26 1325.63 2243.78 1325.52 2245.68 1325.52Z" fill-rule="evenodd"/><text fill="#000000" fill-opacity="0" font-family="Arial,Arial_MSFontService,sans-serif" font-size="39.3926" x="2230.88" y="1359.99">𝜏</text><text font-family="Times New Roman,Times New Roman_MSFontService,sans-serif" font-weight="400" font-size="83" transform="matrix(1 0 0 1 2269.04 1364)">=0.01)</text><path d="M1819.73 388.565C1821.6 388.565 1823.3 388.687 1824.84 388.93 1826.38 389.173 1827.99 389.646 1829.66 390.348L1828.25 393.955C1825.57 393.118 1822.83 392.699 1820.02 392.699 1816.29 392.699 1813.04 393.827 1810.27 396.083 1807.5 398.339 1805.5 401.547 1804.25 405.708L1824.64 405.708 1823.75 409.923 1803.2 409.923C1803.06 410.409 1802.92 411.193 1802.77 412.274 1802.63 413.354 1802.55 414.395 1802.55 415.394 1802.55 418.312 1803.28 420.555 1804.74 422.122 1806.2 423.689 1808.2 424.472 1810.74 424.472 1812.95 424.472 1814.86 424.317 1816.47 424.006 1818.08 423.696 1819.79 423.203 1821.6 422.527L1822.53 425.769C1820.1 426.742 1817.85 427.465 1815.78 427.938 1813.72 428.41 1811.36 428.647 1808.71 428.647 1804.58 428.647 1801.41 427.485 1799.21 425.161 1797.01 422.838 1795.9 419.528 1795.9 415.232 1795.9 413.125 1796.18 410.788 1796.74 408.221 1797.29 405.654 1798.2 403.196 1799.47 400.845 1800.74 398.494 1802.36 396.387 1804.33 394.523 1806.31 392.658 1808.6 391.199 1811.2 390.146 1813.81 389.092 1816.65 388.565 1819.73 388.565Z" fill-rule="evenodd"/><text fill="#000000" fill-opacity="0" font-family="Arial,Arial_MSFontService,sans-serif" font-size="40.0815" x="1795.9" y="423.637">𝜖</text><text font-family="Times New Roman,Times New Roman_MSFontService,sans-serif" font-weight="400" font-size="83" transform="matrix(1 0 0 1 1832.65 428)">-<tspan font-family="KaiTi,KaiTi_MSFontService,sans-serif" font-size="83" x="27.5" y="0">贪心</tspan><tspan font-size="83" x="192.5" y="0">( </tspan></text><path d="M2101.36 388.565C2103.22 388.565 2104.92 388.687 2106.46 388.93 2108 389.173 2109.61 389.646 2111.29 390.348L2109.87 393.955C2107.19 393.118 2104.45 392.699 2101.64 392.699 2097.91 392.699 2094.66 393.827 2091.89 396.083 2089.13 398.339 2087.12 401.547 2085.88 405.708L2106.26 405.708 2105.37 409.923 2084.82 409.923C2084.69 410.409 2084.55 411.193 2084.4 412.274 2084.25 413.354 2084.17 414.395 2084.17 415.394 2084.17 418.312 2084.9 420.555 2086.36 422.122 2087.82 423.689 2089.82 424.472 2092.36 424.472 2094.58 424.472 2096.49 424.317 2098.1 424.006 2099.7 423.696 2101.41 423.203 2103.22 422.527L2104.15 425.769C2101.72 426.742 2099.47 427.465 2097.41 427.938 2095.34 428.41 2092.98 428.647 2090.33 428.647 2086.2 428.647 2083.03 427.485 2080.83 425.161 2078.63 422.838 2077.53 419.528 2077.53 415.232 2077.53 413.125 2077.8 410.788 2078.36 408.221 2078.91 405.654 2079.82 403.196 2081.09 400.845 2082.36 398.494 2083.99 396.387 2085.96 394.523 2087.93 392.658 2090.22 391.199 2092.83 390.146 2095.43 389.092 2098.28 388.565 2101.36 388.565Z" fill-rule="evenodd"/><text fill="#000000" fill-opacity="0" font-family="Arial,Arial_MSFontService,sans-serif" font-size="40.0815" x="2077.53" y="423.637">𝜖</text><text font-family="Times New Roman,Times New Roman_MSFontService,sans-serif" font-weight="400" font-size="83" transform="matrix(1 0 0 1 2114.27 428)">=0.1)<tspan font-size="83" x="-976.8" y="356">Softmax</tspan>(</text><path d="M1460.76 745.706 1482 745.706 1480.79 751.056 1468.1 751.056 1463.52 771.36C1462.93 774.008 1462.63 776.007 1462.63 777.358 1462.63 778.439 1462.8 779.222 1463.16 779.709 1463.51 780.195 1464.06 780.438 1464.82 780.438 1465.74 780.438 1466.74 780.06 1467.82 779.303 1468.9 778.547 1470.13 777.344 1471.5 775.696L1473.85 777.885C1471.53 780.479 1469.46 782.329 1467.63 783.437 1465.81 784.545 1463.94 785.099 1462.02 785.099 1460.1 785.099 1458.59 784.464 1457.48 783.194 1456.37 781.924 1455.82 780.276 1455.82 778.25 1455.82 776.439 1456.2 773.819 1456.95 770.387L1457.52 767.834C1457.95 765.862 1458.6 763.268 1459.45 760.053 1460.3 756.838 1461.16 753.96 1462.02 751.42L1461.82 751.056 1458.33 751.056C1456.55 751.056 1455.18 751.198 1454.22 751.481 1453.26 751.765 1452.32 752.251 1451.4 752.94 1450.48 753.629 1449.52 754.622 1448.53 755.919L1445.97 753.771C1447.43 751.961 1448.71 750.542 1449.8 749.516 1450.9 748.489 1451.94 747.712 1452.94 747.185 1453.94 746.659 1455.02 746.28 1456.18 746.051 1457.35 745.821 1458.87 745.706 1460.76 745.706Z" fill-rule="evenodd"/><text fill="#000000" fill-opacity="0" font-family="Arial,Arial_MSFontService,sans-serif" font-size="39.3926" x="1445.97" y="780.175">𝜏</text><text font-family="Times New Roman,Times New Roman_MSFontService,sans-serif" font-weight="400" font-size="83" transform="matrix(1 0 0 1 1484.13 784)">=0.1)<tspan font-family="KaiTi,KaiTi_MSFontService,sans-serif" font-size="83" x="339.53" y="1522">尝试次数</tspan></text><text font-family="KaiTi,KaiTi_MSFontService,sans-serif" font-weight="400" font-size="83" transform="matrix(-1.83697e-16 -1 1 -1.83697e-16 273.89 1461)">平均累积奖赏</text></g></svg>